.dw $0356	; C3
.dw $0326	; C#3
.dw $02F9	; D3
.dw $02CE	; D#3
.dw $02A5	; E3
.dw $0280	; F3
.dw $025C	; F#3
.dw $023A	; G3
.dw $021A	; G#3
.dw $01FB	; A3
.dw $01DF	; A#3
.dw $01C4	; B3
.dw $01AB	; C4
.dw $0193	; C#4
.dw $017D	; D4
.dw $0167	; D#4
.dw $0153	; E4
.dw $0140	; F4
.dw $012E	; F#4
.dw $011D	; G4
.dw $010D	; G#4
.dw $00FE	; A4
.dw $00EF	; A#4
.dw $00E2	; B4
.dw $00D6	; C5
.dw $00C9	; C#5
.dw $00BE	; D5
.dw $00B4	; D#5
.dw $00A9	; E5
.dw $00A0	; F5
.dw $0097	; F#5
.dw $008F	; G5
.dw $0087	; G#5
.dw $007F	; A5
.dw $0078	; A#5
.dw $0071	; B5
.dw $006B	; C6
.dw $0065	; C#6
.dw $005F	; D6
.dw $005A	; D#6
.dw $0055	; E6
.dw $0050	; F6
.dw $004B	; F#6
.dw $0047	; G6
.dw $0043	; G#6
.dw $0040	; A6
.dw $003C	; A#6
.dw $0039	; B6
.dw $0036	; C7
.dw $0033	; C#7
.dw $0030	; D7
.dw $002D	; D#7
.dw $002B	; E7
.dw $0028	; F7
.dw $0026	; F#7
.dw $0024	; G7
.dw $0022	; G#7
.dw $0020	; A7
.dw $001F	; A#7
.dw $001D	; B7
.dw $001B	; C8
.dw $001A	; C#8
.dw $0018	; D8
.dw $0017	; D#8
.dw $0016	; E8
.dw $0015	; F8
.dw $0013	; F#8
.dw $0012	; G8
.dw $0011	; G#8
.dw $0000	; 


; =============================================================================
;  MIDI NOTE MACROS
; -----------------------------------------------------------------------------


#macro C3
.db $81
#endmacro

#macro Cs3
.db $82
#endmacro

#macro D3
.db $83
#endmacro

#macro Ds3
.db $84
#endmacro

#macro E3
.db $85
#endmacro

#macro F3
.db $86
#endmacro

#macro Fs3
.db $87
#endmacro

#macro G3
.db $88
#endmacro

#macro Gs3
.db $89
#endmacro

#macro A3
.db $8A
#endmacro

#macro As3
.db $8B
#endmacro

#macro B3
.db $8C
#endmacro

#macro C4
.db $8D
#endmacro

#macro Cs4
.db $8E
#endmacro

#macro D4
.db $8F
#endmacro

#macro Ds4
.db $90
#endmacro

#macro E4
.db $91
#endmacro

#macro F4
.db $92
#endmacro

#macro Fs4
.db $93
#endmacro

#macro G4
.db $94
#endmacro

#macro Gs4
.db $95
#endmacro

#macro A4
.db $96
#endmacro

#macro As4
.db $97
#endmacro

#macro B4
.db $98
#endmacro

#macro C5
.db $99
#endmacro

#macro Cs5
.db $9A
#endmacro

#macro D5
.db $9B
#endmacro

#macro Ds5
.db $9C
#endmacro

#macro E5
.db $9D
#endmacro

#macro F5
.db $9E
#endmacro

#macro Fs5
.db $9F
#endmacro

#macro G5
.db $A0
#endmacro

#macro Gs5
.db $A1
#endmacro

#macro A5
.db $A2
#endmacro

#macro As5
.db $A3
#endmacro

#macro B5
.db $A4
#endmacro

#macro C6
.db $A5
#endmacro

#macro Cs6
.db $A6
#endmacro

#macro D6
.db $A7
#endmacro

#macro Ds6
.db $A8
#endmacro

#macro E6
.db $A9
#endmacro

#macro F6
.db $AA
#endmacro

#macro Fs6
.db $AB
#endmacro

#macro G6
.db $AC
#endmacro

#macro Gs6
.db $AD
#endmacro

#macro A6
.db $AE
#endmacro

#macro As6
.db $AF
#endmacro

#macro B6
.db $B0
#endmacro

#macro C7
.db $B1
#endmacro

#macro Cs7
.db $B2
#endmacro

#macro D7
.db $B3
#endmacro

#macro Ds7
.db $B4
#endmacro

#macro E7
.db $B5
#endmacro

#macro F7
.db $B6
#endmacro

#macro Fs7
.db $B7
#endmacro

#macro G7
.db $B8
#endmacro

#macro Gs7
.db $B9
#endmacro

#macro A7
.db $BA
#endmacro

#macro As7
.db $BB
#endmacro

#macro B7
.db $BC
#endmacro

#macro C8
.db $BD
#endmacro

#macro Cs8
.db $BE
#endmacro

#macro D8
.db $BF
#endmacro

#macro Ds8
.db $C0
#endmacro

#macro E8
.db $C1
#endmacro

#macro F8
.db $C2
#endmacro

#macro Fs8
.db $C3
#endmacro

#macro G8
.db $C4
#endmacro

#macro Gs8
.db $C5
#endmacro

